<svg xmlns="http://www.w3.org/2000/svg" version="1.1" xmlns:xlink="http://www.w3.org/1999/xlink" viewBox="5.88 2.48 22.82 4.92"><g transform="matrix(0.7270681064427416,0,0,0.7270681064427416,12.453697346259215,3.6948052658816133)"><g transform="matrix(1,0,0,1,0,0)" clip-path="url(#SvgjsClipPath19919)"><g clip-path="url(#SvgjsClipPath19917c252fd95-8fad-456d-860c-e2f325ce54ef)"><path d=" M -2.982899454016052 0.23412011982816283 C -3.7429944838636393 -0.18118953565556817 -4.80624597213626 -0.09352393620794164 -5.609439173779329 0.2125710339304232 C -7.183991700171074 0.7228925681451035 -7.3431610846430235 2.822459187318171 -6.368554699722472 3.9782737945606357 C -6.101150133809596 4.307387106453405 -5.694656013465849 4.694780900660519 -5.328321553204253 4.784895259869254 C -5.282774621647665 4.796159554770344 -5.256328016227711 4.797139058674787 -5.264653799415473 4.784895259869254 C -5.560953730509411 4.589973982885144 -5.839622591323376 4.2985715713134205 -6.048256922969686 3.9547657008540105 C -6.062949481536328 3.9361551266695978 -6.093314102574052 3.8798336521641392 -6.093314102574052 3.8715078689763764 C -6.0913550947651665 3.870528365071933 -6.083519063529625 3.8783643963074734 -6.070785512771868 3.892567202921896 C -6.06392898544077 3.9004032341574364 -6.055603202253005 3.9097085212496427 -6.0462979151608 3.9199933122462927 C -4.910563137959413 5.252118622288453 -2.5514279841090106 4.525816477144144 -2.0215163718054754 2.99828013816565 C -1.7418680070870645 2.1495400049659947 -2.152769895000807 0.7336671110939761 -2.9745736708282857 0.23852788739815955 L -2.982409702063829 0.23412011982816594 Z M -5.839622591323376 3.919993312246289 C -6.196651764492765 3.526232742660298 -6.38618577000244 3.00660592135341 -6.368064947770249 2.481591828572088 C -6.27256331708708 1.7626359627110977 -5.836684079610048 1.1019605791644544 -5.21420934833667 0.7493391735650567 C -4.088269610179712 -0.01369436799585766 -2.360914474694895 0.7640317321316987 -2.4417235468114242 2.21663602242032 C -2.5548562477745627 3.658465769760072 -4.592714120967737 5.298645057749483 -5.832766063992279 3.9278293434818323 L -5.8401123432755995 3.919993312246289 Z" fill="url(#gradient-c1195d0f-4e77-4d96-a830-fb58607edbad_0)" transform="matrix(1,0,0,1,0,0)" fill-rule="nonzero"></path></g><g clip-path="url(#SvgjsClipPath19917c252fd95-8fad-456d-860c-e2f325ce54ef)"><path d=" M -7.016986284463583 3.7280105469755096 C -7.308388696035306 3.69323815836779 -7.610565650555898 3.727031043071066 -7.902947566032064 3.791678300764289 C -8.012652003329654 3.819594162040908 -8.049383399746258 3.791678300764289 -8.020488034565195 3.6736480802789355 C -7.932332683165347 3.228953307661919 -7.912742605076492 2.7646684569560502 -7.88384723989543 2.310668397246827 C -7.683048939484664 0.3555786039790654 -8.402494557297874 0.8908774877570369 -7.214846073161022 0.6308192011274831 C -7.138934520566707 0.6151471386563994 -7.042943137931315 0.5519691368198396 -7.08653106167902 0.46479328932443464 C -7.130118985426723 0.3815354574468004 -7.258923748860946 0.38937148868234295 -7.344140588547466 0.38741248087345626 C -7.715862320283497 0.3937792562523337 -7.931353179260905 0.031362811608509844 -8.28005656924253 -0.04895650855579592 C -8.52787105706655 -0.08764691278128445 -8.732587373095088 0.20571450659932244 -8.628270207271934 0.42708238900338813 C -8.584682283524229 0.5245430274954441 -8.479875365748853 0.586741525427559 -8.426492402956722 0.6778353885407358 C -8.350580850362409 0.8130069273538385 -8.332460028130217 0.9741353196346745 -8.29817739147472 1.1230199131099738 C -8.095909835207289 2.1843123935737108 -8.257527979440345 2.6108863439585352 -8.52836080901877 3.6006750393979496 C -8.561663941769824 3.7206642676921886 -8.562153693722045 3.849958783078633 -8.600354345995314 3.9694582594206507 C -8.635616486555254 4.072795921339362 -8.73699514066508 4.142340698554799 -8.760013482419485 4.246657864377954 C -8.815845204972723 4.532183252523019 -8.559704933960939 4.729553289268235 -8.288382352430293 4.628664387110632 C -7.889724263322087 4.514552182243049 -7.520941043299386 4.451863932358712 -7.107100643672317 4.436191869887629 C -6.970459849002552 4.4332533581743 -6.804923689151725 4.399950225423246 -6.73244040022296 4.276042981511236 C -6.5957996055531956 4.066429145960484 -6.741745687315166 3.758864919965455 -7.007191245419157 3.7294798028321727 L -7.016986284463584 3.7280105469755096 Z" fill="url(#gradient-c1195d0f-4e77-4d96-a830-fb58607edbad_1)" transform="matrix(1,0,0,1,0,0)" fill-rule="nonzero"></path></g><g clip-path="url(#SvgjsClipPath19917c252fd95-8fad-456d-860c-e2f325ce54ef)"><path d=" M -0.5336499409569164 4.196703165251372 C -0.5845841439879429 4.123240372418164 -0.5938894310801501 4.021371966356116 -0.6076024857423459 3.935665374717373 C -0.6262130599267586 3.802942595665379 -0.6614752004866986 3.6790353517533694 -0.695757837142196 3.5502305883191463 C -0.8167265693408776 3.095740776657702 -0.9773652096694914 2.6314559259518315 -0.9631624030550716 2.1529682686315406 C -0.9548366198673088 1.861565857059819 -0.9288797663995743 1.5701634454880942 -0.874517299703002 1.2865970651519139 C -0.8392551591430601 1.1342842080110638 -0.8230933447197568 0.9697275520646793 -0.7452227843165549 0.8316175015382494 C -0.6962475890944155 0.7488494216128367 -0.6046639740290178 0.6910586912507128 -0.5556887788068785 0.6063316035164148 C -0.4699821871681351 0.4623445295633277 -0.527283165578039 0.2698720123403242 -0.6541289212033767 0.17045236603938285 C -1.0214428853694146 -0.10870624672680451 -1.3902261053921148 0.5686207031953667 -1.825615590916926 0.5407048419187479 C -1.878508801756836 0.542174097775413 -1.938258539927844 0.5402150899665279 -1.9882132390544243 0.5524588887720627 C -2.106243459539777 0.5744977266220239 -2.1322003130075107 0.7077102576262397 -2.023965131566584 0.7581547087050431 C -1.822187327251374 0.8301482456815859 -1.5998399409428679 0.8531665874359906 -1.3814105702521298 0.8786336889515038 C -1.3417406621221968 0.8825517045692741 -1.2917859629956165 0.8874492240914884 -1.266318861480106 0.9183035970814355 C -1.2496672951045777 0.9388731790747331 -1.247218535343472 0.9697275520646806 -1.2521160548656862 1.0074384523857274 C -1.2780729083334181 1.1538742860999214 -1.3006014981356042 1.3066768951929928 -1.3123555449889155 1.4560512406205126 C -1.3422304140744208 1.7939800876532683 -1.307458025466702 2.1250524073549215 -1.2854191876167373 2.4634710063398977 C -1.2619110939101112 2.823438691222613 -1.2477082872956906 3.1848756319619937 -1.1962843323124455 3.5404355492747186 C -1.1820815256980284 3.6481809787634223 -1.1634709515136166 3.7573956641087918 -1.1424116175680954 3.8626923338363888 C -1.1223317875270178 3.9547657008540087 -1.1762045022713714 3.966029995755102 -1.2535853107223485 3.9474194215706877 C -1.5846576304240045 3.8827721638774664 -1.9397277957845063 3.816165898375356 -2.265902595963948 3.912647032962969 C -2.446131314381418 3.984150817987291 -2.5200838591668457 4.179072094971402 -2.4760061834669216 4.339710735300015 C -2.43682602728921 4.522877965430813 -2.2257429358817946 4.593402246550691 -2.051880992843203 4.5894842309329205 C -1.649794640069448 4.605156293404004 -1.2878679473778458 4.665885535479456 -0.9009639051229552 4.776079724729266 C -0.8397449110952824 4.7927312911047935 -0.7746079014498388 4.808403353575877 -0.7114298996132788 4.806934097719214 C -0.5189573823902762 4.808403353575877 -0.3759498123416307 4.608584557069553 -0.40337592166602754 4.427376334747643 C -0.412681208758233 4.338731231395571 -0.4787977223081228 4.272614717845686 -0.5277729175302603 4.2030699406302485 L -0.5326704370524773 4.195233909394705 Z" fill="url(#gradient-c1195d0f-4e77-4d96-a830-fb58607edbad_2)" transform="matrix(1,0,0,1,0,0)" fill-rule="nonzero"></path></g><g clip-path="url(#SvgjsClipPath19917c252fd95-8fad-456d-860c-e2f325ce54ef)"><path d=" M -6.6085331563109495 0.11266163567726029 C -6.513031525627779 0.1665343504216108 -6.38569601805022 0.0896432939228542 -6.3842267621935544 -0.021040647279177094 C -6.345536357968067 -0.1106652545356912 -6.344556854063622 -0.22134919573772338 -6.44985352379122 -0.26493711948542575 C -6.661426367150858 -0.34231792793640414 -6.784354107158425 -0.0034095769992066316 -6.615389683642048 0.10874362005948979 L -6.6085331563109495 0.11266163567726184 Z M -6.38912428171577 -0.01859188751807017 C -6.38912428171577 -0.01859188751807017 -6.38912428171577 -0.016143127756962583 -6.38912428171577 -0.015163623852520569 C -6.392552545381319 -0.006348088712535338 -6.3964705609990915 0.001977694475227443 -6.39989882466464 0.010793229615213562 C -6.395980809046868 0.0009981905707856509 -6.392062793429099 -0.00879684847364226 -6.388634529763548 -0.01859188751807017 Z" fill="url(#gradient-c1195d0f-4e77-4d96-a830-fb58607edbad_3)" transform="matrix(1,0,0,1,0,0)" fill-rule="nonzero"></path></g><g clip-path="url(#SvgjsClipPath19917c252fd95-8fad-456d-860c-e2f325ce54ef)"><path d=" M -6.149635577079513 -0.43684005471513154 C -6.1168221962806815 -0.4383093105717959 -6.0712752647240915 -0.4691636835617432 -6.029646348785275 -0.49658979288614014 C -5.448310781498494 -0.8609652453388494 -4.722498388306404 -1.0103395907663706 -4.072107795756407 -0.8874118507588045 C -3.5848046032961323 -0.7933794759322988 -3.0930936432658624 -0.5499727556782713 -2.6875790268265582 -0.25759084020210565 C -2.5156760915968537 -0.11311401429679835 -2.3060622560461015 -0.053364276125789534 -2.1684419574718934 -0.281098933908732 C -1.932381516501187 -0.6964085893924646 -2.405971654299263 -0.9221842393665216 -2.685620019017673 -1.0730278406507079 C -3.1885952739490335 -1.328188607758048 -3.7268326694403324 -1.4094874318267978 -4.303270717204901 -1.3521864534168961 C -5.022716335018112 -1.2934162191503302 -5.589849095690473 -1.0328681805685545 -6.139350786082865 -0.531362181493858 C -6.170205159072811 -0.5024668163127968 -6.204977547680532 -0.4343912949540245 -6.154533096601728 -0.43684005471513154 L -6.149145825127292 -0.43684005471513154 Z" fill="url(#gradient-c1195d0f-4e77-4d96-a830-fb58607edbad_4)" transform="matrix(1,0,0,1,0,0)" fill-rule="nonzero"></path></g><g clip-path="url(#SvgjsClipPath19917c252fd95-8fad-456d-860c-e2f325ce54ef)"><path d=" M -7.605668131033685 -0.31734057837311425 C -7.427398420425101 0.20424525074265887 -6.67269066205195 -0.07050559445353777 -6.86418367537051 -0.5906221677126458 C -7.071348751160155 -1.048050491087418 -7.736431902276794 -0.8026847630245043 -7.608116890794792 -0.32517660960865613 L -7.605668131033685 -0.31685082642089335 Z" fill="url(#gradient-c1195d0f-4e77-4d96-a830-fb58607edbad_5)" transform="matrix(1,0,0,1,0,0)" fill-rule="nonzero"></path></g><g clip-path="url(#SvgjsClipPath19917c252fd95-8fad-456d-860c-e2f325ce54ef)"><path d=" M -5.525691589949471 3.4023254987482883 C -5.660863128762572 3.2813567665496075 -5.810237474190094 3.1099435832721234 -5.870476964313324 2.9302046168068747 C -5.8969235697332785 2.838131249789255 -5.994873960177555 2.76221969719494 -6.079601047911854 2.843028769311469 C -6.156002352458391 2.924817345332439 -6.103109141618481 3.0555811165755493 -6.086947327195176 3.1505929953064973 C -6.026218085119725 3.4816653150081525 -5.843540606941149 3.7877602851465157 -5.549199683656099 3.9704377633250925 C -5.352319398863102 4.113935085325958 -4.998228737407043 4.0086384155983605 -5.151031346500115 3.729969554784394 C -5.2328199225210845 3.5962672718279567 -5.410110129225226 3.5081119204281075 -5.519324814570595 3.408202522174946 L -5.526181341901694 3.4023254987482883 Z" fill="url(#gradient-c1195d0f-4e77-4d96-a830-fb58607edbad_6)" transform="matrix(1,0,0,1,0,0)" fill-rule="nonzero"></path></g></g><g><path d=" M 0.9294300000000001 1.458801 L 0.9294300000000001 1.418391 Q 0.9981270000000001 1.41435 1.03348575 1.4022270000000001 Q 1.0688445 1.390104 1.0809675 1.353735 Q 1.0930905000000002 1.317366 1.0930905000000002 1.244628 L 1.0930905000000002 0.2424599999999999 Q 1.0930905000000002 0.16770149999999995 1.0809675 0.13234274999999984 Q 1.0688445 0.09698399999999996 1.03348575 0.08385074999999986 Q 0.9981270000000001 0.07071749999999999 0.9294300000000001 0.06869700000000001 L 0.9294300000000001 0.02828699999999995 Q 0.9759015000000001 0.03030749999999993 1.0466190000000002 0.03232799999999991 Q 1.1173365000000002 0.03434849999999989 1.1860335000000002 0.03434849999999989 Q 1.264833 0.03434849999999989 1.33353 0.03232799999999991 Q 1.4022270000000001 0.03030749999999993 1.4446575000000001 0.02828699999999995 L 1.4446575000000001 0.06869700000000001 Q 1.3759605000000001 0.07071749999999999 1.34060175 0.08385074999999986 Q 1.3052430000000002 0.09698399999999996 1.29312 0.13234274999999984 Q 1.2809970000000002 0.16770149999999995 1.2809970000000002 0.2424599999999999 L 1.2809970000000002 1.244628 Q 1.2809970000000002 1.317366 1.29312 1.353735 Q 1.3052430000000002 1.390104 1.34060175 1.4022270000000001 Q 1.3759605000000001 1.41435 1.4446575000000001 1.418391 L 1.4446575000000001 1.458801 Q 1.4022270000000001 1.45476 1.33353 1.45374975 Q 1.264833 1.4527395 1.1860335000000002 1.4527395 Q 1.1173365000000002 1.4527395 1.0466190000000002 1.45374975 Q 0.9759015000000001 1.45476 0.9294300000000001 1.458801 M 0.084861 1.458801 L 0.084861 1.418391 Q 0.153558 1.41435 0.18891675000000002 1.4022270000000001 Q 0.22427550000000002 1.390104 0.2363985 1.353735 Q 0.2485215 1.317366 0.2485215 1.244628 L 0.2485215 0.2424599999999999 Q 0.2485215 0.16770149999999995 0.2363985 0.13234274999999984 Q 0.22427550000000002 0.09698399999999996 0.18891675000000002 0.08385074999999986 Q 0.153558 0.07071749999999999 0.084861 0.06869700000000001 L 0.084861 0.02828699999999995 Q 0.1272915 0.03030749999999993 0.1959885 0.03232799999999991 Q 0.2646855 0.03434849999999989 0.34348500000000004 0.03434849999999989 Q 0.41420250000000003 0.03434849999999989 0.48390975 0.03232799999999991 Q 0.553617 0.03030749999999993 0.6000885 0.02828699999999995 L 0.6000885 0.06869700000000001 Q 0.5313915 0.07071749999999999 0.49603275 0.08385074999999986 Q 0.46067400000000003 0.09698399999999996 0.44855100000000003 0.13234274999999984 Q 0.43642800000000004 0.16770149999999995 0.43642800000000004 0.2424599999999999 L 0.43642800000000004 1.244628 Q 0.43642800000000004 1.317366 0.44855100000000003 1.353735 Q 0.46067400000000003 1.390104 0.49603275 1.4022270000000001 Q 0.5313915 1.41435 0.6000885 1.418391 L 0.6000885 1.458801 Q 0.553617 1.45476 0.48390975 1.45374975 Q 0.41420250000000003 1.4527395 0.34348500000000004 1.4527395 Q 0.2646855 1.4527395 0.1959885 1.45374975 Q 0.1272915 1.45476 0.084861 1.458801 M 0.36571050000000005 0.7597079999999999 L 0.36571050000000005 0.719298 L 1.1638080000000002 0.719298 L 1.1638080000000002 0.7597079999999999 L 0.36571050000000005 0.7597079999999999 M 2.2630073554687504 0 Q 2.4549548554687504 0 2.59942060546875 0.08688149999999983 Q 2.7438863554687503 0.1737629999999999 2.82369610546875 0.3364132499999999 Q 2.90350585546875 0.4990635 2.90350585546875 0.731421 Q 2.90350585546875 0.9577169999999999 2.8216756054687506 1.1274389999999999 Q 2.7398453554687503 1.297161 2.5943693554687504 1.3921245 Q 2.4488933554687504 1.487088 2.2609868554687504 1.487088 Q 2.0690393554687505 1.487088 1.9245736054687503 1.4002065 Q 1.7801078554687502 1.313325 1.7002981054687503 1.1496645 Q 1.6204883554687504 0.986004 1.6204883554687504 0.755667 Q 1.6204883554687504 0.5293709999999999 1.7033288554687502 0.3596489999999999 Q 1.7861693554687503 0.18992699999999996 1.9306351054687503 0.09496349999999998 Q 2.0751008554687504 0 2.2630073554687504 0 M 2.2549253554687505 0.036368999999999874 Q 2.1235928554687504 0.036368999999999874 2.0266088554687505 0.1272914999999999 Q 1.9296248554687503 0.2182139999999999 1.8760816054687504 0.37783349999999993 Q 1.8225383554687502 0.537453 1.8225383554687502 0.7475849999999999 Q 1.8225383554687502 0.961758 1.8821431054687503 1.12036725 Q 1.9417478554687504 1.2789765 2.0437831054687505 1.36484775 Q 2.14581835546875 1.450719 2.2690688554687504 1.450719 Q 2.4004013554687504 1.450719 2.4973853554687504 1.3597965 Q 2.5943693554687504 1.268874 2.6479126054687505 1.10824425 Q 2.7014558554687502 0.9476145 2.7014558554687502 0.7395029999999999 Q 2.7014558554687502 0.5233095 2.64185110546875 0.3657104999999998 Q 2.58224635546875 0.2081115 2.48122135546875 0.12224024999999994 Q 2.38019635546875 0.036368999999999874 2.2549253554687505 0.036368999999999874 M 3.760254090087891 0 Q 3.893607090087891 0 3.9794783400878915 0.039399749999999845 Q 4.065349590087891 0.07879949999999991 4.132026090087892 0.13133249999999985 Q 4.172436090087891 0.16164 4.193651340087891 0.13840425 Q 4.214866590087891 0.11516850000000001 4.222948590087891 0.02828699999999995 L 4.269420090087891 0.02828699999999995 Q 4.265379090087891 0.1030454999999999 4.263358590087892 0.21013199999999999 Q 4.261338090087891 0.31721849999999985 4.261338090087891 0.49300199999999994 L 4.214866590087891 0.49300199999999994 Q 4.200723090087891 0.4061204999999999 4.188600090087891 0.35459774999999993 Q 4.176477090087891 0.303075 4.159302840087891 0.2667059999999999 Q 4.142128590087891 0.23033700000000001 4.113841590087891 0.19396799999999992 Q 4.0512060900878915 0.11112749999999982 3.956242590087891 0.07374824999999996 Q 3.8612790900878915 0.036368999999999874 3.756213090087891 0.036368999999999874 Q 3.6572085900878912 0.036368999999999874 3.5773988400878913 0.08587124999999984 Q 3.4975890900878914 0.1353734999999998 3.4400048400878913 0.2283164999999998 Q 3.382420590087891 0.32125950000000003 3.3511028400878913 0.4525919999999999 Q 3.3197850900878914 0.5839245 3.3197850900878914 0.7475849999999999 Q 3.3197850900878914 0.917307 3.3541335900878915 1.04762925 Q 3.388482090087891 1.1779515 3.450107340087891 1.2668535 Q 3.5117325900878913 1.3557555 3.595583340087891 1.4012167500000001 Q 3.6794340900878915 1.446678 3.7764180900878914 1.446678 Q 3.8673405900878914 1.446678 3.9663450900878914 1.410309 Q 4.065349590087891 1.37394 4.121923590087891 1.29312 Q 4.166374590087891 1.2345255 4.183548840087891 1.1658285 Q 4.200723090087891 1.0971315 4.214866590087891 0.973881 L 4.261338090087891 0.973881 Q 4.261338090087891 1.1577465 4.263358590087892 1.26988425 Q 4.265379090087891 1.382022 4.269420090087891 1.458801 L 4.222948590087891 1.458801 Q 4.214866590087891 1.3719195 4.195671840087892 1.349694 Q 4.176477090087891 1.3274685 4.132026090087892 1.3557555 Q 4.057267590087891 1.4082885 3.973416840087891 1.4476882500000001 Q 3.8895660900878912 1.487088 3.758233590087891 1.487088 Q 3.566286090087891 1.487088 3.4218203400878915 1.4002065 Q 3.2773545900878913 1.313325 3.1975448400878914 1.1496645 Q 3.117735090087891 0.986004 3.117735090087891 0.755667 Q 3.117735090087891 0.5293709999999999 3.200575590087891 0.3596489999999999 Q 3.2834160900878913 0.18992699999999996 3.4278818400878914 0.09496349999999998 Q 3.572347590087891 0 3.760254090087891 0 M 5.330158912353516 1.458801 L 5.330158912353516 1.418391 Q 5.3988559123535165 1.41435 5.434214662353517 1.4022270000000001 Q 5.469573412353516 1.390104 5.481696412353516 1.353735 Q 5.493819412353517 1.317366 5.493819412353517 1.244628 L 5.493819412353517 0.2424599999999999 Q 5.493819412353517 0.16770149999999995 5.481696412353516 0.13234274999999984 Q 5.469573412353516 0.09698399999999996 5.434214662353517 0.08385074999999986 Q 5.3988559123535165 0.07071749999999999 5.330158912353516 0.06869700000000001 L 5.330158912353516 0.02828699999999995 Q 5.376630412353516 0.03030749999999993 5.447347912353516 0.03232799999999991 Q 5.518065412353517 0.03434849999999989 5.586762412353517 0.03434849999999989 Q 5.665561912353517 0.03434849999999989 5.734258912353516 0.03232799999999991 Q 5.802955912353516 0.03030749999999993 5.845386412353516 0.02828699999999995 L 5.845386412353516 0.06869700000000001 Q 5.776689412353516 0.07071749999999999 5.7413306623535165 0.08385074999999986 Q 5.705971912353516 0.09698399999999996 5.693848912353516 0.13234274999999984 Q 5.681725912353516 0.16770149999999995 5.681725912353516 0.2424599999999999 L 5.681725912353516 1.244628 Q 5.681725912353516 1.317366 5.693848912353516 1.353735 Q 5.705971912353516 1.390104 5.7413306623535165 1.4022270000000001 Q 5.776689412353516 1.41435 5.845386412353516 1.418391 L 5.845386412353516 1.458801 Q 5.802955912353516 1.45476 5.734258912353516 1.45374975 Q 5.665561912353517 1.4527395 5.586762412353517 1.4527395 Q 5.518065412353517 1.4527395 5.447347912353516 1.45374975 Q 5.376630412353516 1.45476 5.330158912353516 1.458801 M 4.485589912353516 1.458801 L 4.485589912353516 1.418391 Q 4.554286912353517 1.41435 4.589645662353516 1.4022270000000001 Q 4.625004412353516 1.390104 4.637127412353516 1.353735 Q 4.649250412353516 1.317366 4.649250412353516 1.244628 L 4.649250412353516 0.2424599999999999 Q 4.649250412353516 0.16770149999999995 4.637127412353516 0.13234274999999984 Q 4.625004412353516 0.09698399999999996 4.589645662353516 0.08385074999999986 Q 4.554286912353517 0.07071749999999999 4.485589912353516 0.06869700000000001 L 4.485589912353516 0.02828699999999995 Q 4.528020412353516 0.03030749999999993 4.596717412353517 0.03232799999999991 Q 4.665414412353516 0.03434849999999989 4.7442139123535165 0.03434849999999989 Q 4.814931412353516 0.03434849999999989 4.884638662353517 0.03232799999999991 Q 4.954345912353516 0.03030749999999993 5.000817412353516 0.02828699999999995 L 5.000817412353516 0.06869700000000001 Q 4.932120412353516 0.07071749999999999 4.896761662353517 0.08385074999999986 Q 4.861402912353516 0.09698399999999996 4.849279912353516 0.13234274999999984 Q 4.8371569123535165 0.16770149999999995 4.8371569123535165 0.2424599999999999 L 4.8371569123535165 1.244628 Q 4.8371569123535165 1.317366 4.849279912353516 1.353735 Q 4.861402912353516 1.390104 4.896761662353517 1.4022270000000001 Q 4.932120412353516 1.41435 5.000817412353516 1.418391 L 5.000817412353516 1.458801 Q 4.954345912353516 1.45476 4.884638662353517 1.45374975 Q 4.814931412353516 1.4527395 4.7442139123535165 1.4527395 Q 4.665414412353516 1.4527395 4.596717412353517 1.45374975 Q 4.528020412353516 1.45476 4.485589912353516 1.458801 M 4.766439412353517 0.7597079999999999 L 4.766439412353517 0.719298 L 5.564536912353517 0.719298 L 5.564536912353517 0.7597079999999999 L 4.766439412353517 0.7597079999999999 M 7.041560888671875 0.02828699999999995 L 7.041560888671875 0.06869700000000001 L 6.235381388671875 1.4123295 L 6.631399388671875 1.4123295 Q 6.726362888671876 1.4123295 6.785967638671876 1.3921245 Q 6.845572388671876 1.3719195 6.880931138671875 1.32847875 Q 6.9162898886718756 1.2850380000000001 6.934474388671875 1.2123 Q 6.952658888671875 1.139562 6.9627613886718756 1.0344959999999999 L 7.0092328886718755 1.0344959999999999 Q 7.003171388671875 1.0971315 7.003171388671875 1.200177 Q 7.003171388671875 1.2385665 7.006202138671876 1.31029425 Q 7.0092328886718755 1.382022 7.0173148886718755 1.458801 Q 6.942556388671875 1.45476 6.853654388671876 1.45374975 Q 6.764752388671876 1.4527395 6.676860638671875 1.4527395 Q 6.588968888671875 1.4527395 6.514210388671875 1.4527395 Q 6.395000888671875 1.4527395 6.262658138671875 1.45374975 Q 6.1303153886718755 1.45476 6.015146888671875 1.458801 L 6.015146888671875 1.418391 L 6.8273878886718755 0.07475849999999995 L 6.433390388671875 0.07475849999999995 Q 6.338426888671875 0.07475849999999995 6.278822138671876 0.09496349999999998 Q 6.219217388671876 0.11516850000000001 6.183858638671875 0.1586092499999998 Q 6.148499888671875 0.20204999999999984 6.1303153886718755 0.2747879999999998 Q 6.112130888671875 0.347526 6.102028388671875 0.4525919999999999 L 6.055556888671875 0.4525919999999999 Q 6.059597888671875 0.42026399999999997 6.060608138671875 0.37783349999999993 Q 6.061618388671875 0.3354029999999999 6.061618388671875 0.2869109999999999 Q 6.061618388671875 0.24852149999999984 6.0585876386718756 0.17679374999999986 Q 6.055556888671875 0.10506599999999988 6.047474888671875 0.02828699999999995 Q 6.122233388671876 0.03030749999999993 6.211135388671876 0.03232799999999991 Q 6.300037388671875 0.03434849999999989 6.388939388671876 0.03434849999999989 Q 6.477841388671875 0.03434849999999989 6.550579388671875 0.03434849999999989 Q 6.665747888671875 0.03434849999999989 6.798090638671876 0.0333382499999999 Q 6.930433388671876 0.03232799999999991 7.041560888671875 0.02828699999999995 M 8.223541549804688 0.02828699999999995 Q 8.215459549804688 0.09900449999999994 8.212428799804687 0.16568099999999997 Q 8.209398049804687 0.2323575 8.209398049804687 0.2667059999999999 Q 8.209398049804687 0.303075 8.211418549804687 0.3364132499999999 Q 8.213439049804688 0.3697515 8.215459549804688 0.391977 L 8.168988049804687 0.391977 Q 8.156865049804688 0.27276749999999983 8.134639549804687 0.20306024999999983 Q 8.112414049804688 0.13335299999999983 8.058870799804687 0.10405574999999989 Q 8.005327549804687 0.07475849999999995 7.898241049804687 0.07475849999999995 L 7.730539549804687 0.07475849999999995 Q 7.661842549804687 0.07475849999999995 7.626483799804688 0.08587124999999984 Q 7.591125049804687 0.09698399999999996 7.5790020498046875 0.13234274999999984 Q 7.566879049804688 0.16770149999999995 7.566879049804688 0.2424599999999999 L 7.566879049804688 1.244628 Q 7.566879049804688 1.317366 7.5790020498046875 1.353735 Q 7.591125049804687 1.390104 7.626483799804688 1.4012167500000001 Q 7.661842549804687 1.4123295 7.730539549804687 1.4123295 L 7.878036049804687 1.4123295 Q 8.005327549804687 1.4123295 8.070993799804688 1.3779810000000001 Q 8.136660049804687 1.3436325 8.165957299804688 1.26584325 Q 8.195254549804687 1.188054 8.209398049804687 1.054701 L 8.255869549804688 1.054701 Q 8.249808049804688 1.1092545 8.249808049804688 1.200177 Q 8.249808049804688 1.2385665 8.252838799804687 1.31029425 Q 8.255869549804688 1.382022 8.263951549804688 1.458801 Q 8.160906049804687 1.45476 8.031594049804687 1.45374975 Q 7.902282049804687 1.4527395 7.801257049804687 1.4527395 Q 7.756806049804688 1.4527395 7.687098799804687 1.4527395 Q 7.617391549804688 1.4527395 7.5365715498046875 1.45374975 Q 7.455751549804687 1.45476 7.372911049804688 1.45577025 Q 7.290070549804687 1.4567805 7.215312049804687 1.458801 L 7.215312049804687 1.418391 Q 7.284009049804688 1.41435 7.319367799804687 1.4022270000000001 Q 7.354726549804687 1.390104 7.366849549804687 1.353735 Q 7.378972549804687 1.317366 7.378972549804687 1.244628 L 7.378972549804687 0.2424599999999999 Q 7.378972549804687 0.16770149999999995 7.366849549804687 0.13234274999999984 Q 7.354726549804687 0.09698399999999996 7.319367799804687 0.08385074999999986 Q 7.284009049804688 0.07071749999999999 7.215312049804687 0.06869700000000001 L 7.215312049804687 0.02828699999999995 Q 7.290070549804687 0.03030749999999993 7.372911049804688 0.03131774999999992 Q 7.455751549804687 0.03232799999999991 7.5365715498046875 0.0333382499999999 Q 7.617391549804688 0.03434849999999989 7.687098799804687 0.03434849999999989 Q 7.756806049804688 0.03434849999999989 7.801257049804687 0.03434849999999989 Q 7.894200049804687 0.03434849999999989 8.012399299804688 0.0333382499999999 Q 8.130598549804688 0.03232799999999991 8.223541549804688 0.02828699999999995 M 7.876015549804688 0.719298 Q 7.876015549804688 0.719298 7.876015549804688 0.7395029999999999 Q 7.876015549804688 0.7597079999999999 7.876015549804688 0.7597079999999999 L 7.506264049804687 0.7597079999999999 Q 7.506264049804687 0.7597079999999999 7.506264049804687 0.7395029999999999 Q 7.506264049804687 0.719298 7.506264049804687 0.719298 L 7.876015549804688 0.719298 M 7.934610049804688 0.4525919999999999 Q 7.926528049804688 0.5677604999999999 7.927538299804687 0.6283755 Q 7.928548549804687 0.6889905 7.928548549804687 0.7395029999999999 Q 7.928548549804687 0.7900155 7.930569049804688 0.8506305 Q 7.932589549804687 0.9112454999999999 7.940671549804687 1.026414 L 7.894200049804687 1.026414 Q 7.886118049804687 0.961758 7.8750052998046876 0.9001327499999999 Q 7.863892549804687 0.8385075 7.826513299804687 0.79910775 Q 7.789134049804687 0.7597079999999999 7.700232049804687 0.7597079999999999 L 7.700232049804687 0.719298 Q 7.766908549804687 0.719298 7.802267299804687 0.6920212499999999 Q 7.837626049804688 0.6647445 7.8537900498046875 0.6223139999999999 Q 7.869954049804687 0.5798835 7.876015549804688 0.53442225 Q 7.882077049804687 0.488961 7.888138549804688 0.4525919999999999 L 7.934610049804688 0.4525919999999999 M 8.961041808105469 0.02828699999999995 L 8.961041808105469 0.06869700000000001 Q 8.892344808105468 0.07071749999999999 8.856986058105468 0.08385074999999986 Q 8.82162730810547 0.09698399999999996 8.809504308105469 0.13234274999999984 Q 8.797381308105468 0.16770149999999995 8.797381308105468 0.2424599999999999 L 8.797381308105468 1.244628 Q 8.797381308105468 1.317366 8.809504308105469 1.353735 Q 8.82162730810547 1.390104 8.856986058105468 1.4022270000000001 Q 8.892344808105468 1.41435 8.961041808105469 1.418391 L 8.961041808105469 1.458801 Q 8.914570308105468 1.45476 8.844863058105469 1.45374975 Q 8.775155808105469 1.4527395 8.704438308105468 1.4527395 Q 8.62563880810547 1.4527395 8.556941808105469 1.45374975 Q 8.488244808105469 1.45476 8.445814308105469 1.458801 L 8.445814308105469 1.418391 Q 8.514511308105469 1.41435 8.54987005810547 1.4022270000000001 Q 8.585228808105468 1.390104 8.597351808105469 1.353735 Q 8.60947480810547 1.317366 8.60947480810547 1.244628 L 8.60947480810547 0.2424599999999999 Q 8.60947480810547 0.16770149999999995 8.597351808105469 0.13234274999999984 Q 8.585228808105468 0.09698399999999996 8.54987005810547 0.08385074999999986 Q 8.514511308105469 0.07071749999999999 8.445814308105469 0.06869700000000001 L 8.445814308105469 0.02828699999999995 Q 8.488244808105469 0.03030749999999993 8.556941808105469 0.03232799999999991 Q 8.62563880810547 0.03434849999999989 8.704438308105468 0.03434849999999989 Q 8.775155808105469 0.03434849999999989 8.844863058105469 0.03232799999999991 Q 8.914570308105468 0.03030749999999993 8.961041808105469 0.02828699999999995 M 10.242017103515625 0.02828699999999995 Q 10.233935103515623 0.10506599999999988 10.230904353515625 0.17679374999999986 Q 10.227873603515624 0.24852149999999984 10.227873603515624 0.2869109999999999 Q 10.227873603515624 0.3354029999999999 10.229894103515624 0.37783349999999993 Q 10.231914603515625 0.42026399999999997 10.233935103515623 0.4525919999999999 L 10.187463603515624 0.4525919999999999 Q 10.173320103515625 0.3111569999999999 10.149074103515623 0.22932675000000002 Q 10.124828103515624 0.14749649999999992 10.064213103515623 0.11112749999999982 Q 10.003598103515625 0.07475849999999995 9.876306603515625 0.07475849999999995 L 9.767199603515625 0.07475849999999995 L 9.767199603515625 1.224423 Q 9.767199603515625 1.305243 9.782353353515624 1.345653 Q 9.797507103515624 1.386063 9.841958103515625 1.4002065 Q 9.886409103515625 1.41435 9.971270103515625 1.418391 L 9.971270103515625 1.458801 Q 9.918737103515625 1.45476 9.837917103515624 1.45374975 Q 9.757097103515624 1.4527395 9.674256603515625 1.4527395 Q 9.583334103515623 1.4527395 9.503524353515624 1.45374975 Q 9.423714603515624 1.45476 9.375222603515624 1.458801 L 9.375222603515624 1.418391 Q 9.460083603515624 1.41435 9.504534603515625 1.4002065 Q 9.548985603515625 1.386063 9.564139353515625 1.345653 Q 9.579293103515624 1.305243 9.579293103515624 1.224423 L 9.579293103515624 0.07475849999999995 L 9.470186103515625 0.07475849999999995 Q 9.344915103515625 0.07475849999999995 9.283289853515624 0.11112749999999982 Q 9.221664603515624 0.14749649999999992 9.197418603515624 0.22932675000000002 Q 9.173172603515624 0.3111569999999999 9.159029103515625 0.4525919999999999 L 9.112557603515624 0.4525919999999999 Q 9.116598603515625 0.42026399999999997 9.117608853515625 0.37783349999999993 Q 9.118619103515623 0.3354029999999999 9.118619103515623 0.2869109999999999 Q 9.118619103515623 0.24852149999999984 9.115588353515625 0.17679374999999986 Q 9.112557603515624 0.10506599999999988 9.104475603515624 0.02828699999999995 Q 9.189336603515624 0.03030749999999993 9.289351353515624 0.03232799999999991 Q 9.389366103515624 0.03434849999999989 9.490391103515623 0.03434849999999989 Q 9.591416103515623 0.03434849999999989 9.674256603515625 0.03434849999999989 Q 9.757097103515624 0.03434849999999989 9.857111853515624 0.03434849999999989 Q 9.957126603515624 0.03434849999999989 10.058151603515624 0.03232799999999991 Q 10.159176603515624 0.03030749999999993 10.242017103515625 0.02828699999999995 M 10.817802382324219 0.006061499999999942 Q 10.918827382324219 0.006061499999999942 10.97136038232422 0.02929724999999994 Q 11.023893382324218 0.05253299999999994 11.06430338232422 0.08081999999999989 Q 11.088549382324219 0.09496349999999998 11.103703132324219 0.10203524999999991 Q 11.118856882324218 0.10910699999999984 11.13300038232422 0.10910699999999984 Q 11.153205382324218 0.10910699999999984 11.162297632324218 0.08688149999999983 Q 11.171389882324219 0.06465599999999982 11.177451382324218 0.020204999999999806 L 11.223922882324219 0.020204999999999806 Q 11.221902382324219 0.05455349999999992 11.218871632324218 0.10203524999999991 Q 11.215840882324219 0.1495169999999999 11.214830632324219 0.22730624999999982 Q 11.213820382324219 0.30509549999999996 11.213820382324219 0.43238699999999985 L 11.167348882324218 0.43238699999999985 Q 11.161287382324218 0.3354029999999999 11.124918382324218 0.24650099999999986 Q 11.088549382324219 0.15759899999999982 11.018842132324218 0.10102499999999992 Q 10.949134882324218 0.044450999999999796 10.83598688232422 0.044450999999999796 Q 10.728900382324218 0.044450999999999796 10.65919313232422 0.10910699999999984 Q 10.589485882324219 0.1737629999999999 10.589485882324219 0.278829 Q 10.589485882324219 0.3697515 10.635957382324218 0.43137674999999986 Q 10.682428882324219 0.49300199999999994 10.76021813232422 0.5425042499999999 Q 10.838007382324218 0.5920065 10.92892988232422 0.6485805 Q 11.033995882324218 0.7132364999999999 11.11582613232422 0.77688225 Q 11.197656382324219 0.8405279999999999 11.245138132324218 0.917307 Q 11.29261988232422 0.994086 11.29261988232422 1.103193 Q 11.29261988232422 1.232505 11.23402538232422 1.317366 Q 11.175430882324218 1.4022270000000001 11.078446882324219 1.4446575 Q 10.981462882324218 1.487088 10.864273882324218 1.487088 Q 10.757187382324219 1.487088 10.694551882324218 1.462842 Q 10.631916382324219 1.438596 10.587465382324218 1.4123295 Q 10.543014382324218 1.3840425 10.518768382324218 1.3840425 Q 10.49856338232422 1.3840425 10.48947113232422 1.406268 Q 10.480378882324219 1.4284935 10.474317382324218 1.4729445 L 10.427845882324219 1.4729445 Q 10.431886882324218 1.430514 10.432897132324218 1.37292975 Q 10.433907382324218 1.3153455 10.434917632324218 1.2224025 Q 10.435927882324219 1.1294595 10.435927882324219 0.9880245 L 10.482399382324218 0.9880245 Q 10.49048138232422 1.1092545 10.527860632324218 1.2143205 Q 10.565239882324219 1.3193865 10.64302913232422 1.38303225 Q 10.720818382324218 1.446678 10.850130382324219 1.446678 Q 10.916806882324218 1.446678 10.976411632324218 1.41940125 Q 11.036016382324219 1.3921245 11.074405882324218 1.33251975 Q 11.112795382324219 1.272915 11.112795382324219 1.1779515 Q 11.112795382324219 1.095111 11.07339563232422 1.03348575 Q 11.033995882324218 0.9718605 10.96327838232422 0.91831725 Q 10.892560882324219 0.8647739999999999 10.797597382324218 0.8081999999999999 Q 10.702633882324218 0.7496054999999999 10.619793382324218 0.6889905 Q 10.536952882324218 0.6283755 10.487450632324219 0.54856575 Q 10.437948382324219 0.46875599999999995 10.437948382324219 0.3556079999999999 Q 10.437948382324219 0.23639849999999996 10.491491632324218 0.1586092499999998 Q 10.545034882324218 0.08081999999999989 10.631916382324219 0.043440749999999806 Q 10.71879788232422 0.006061499999999942 10.817802382324219 0.006061499999999942 M 11.476440986572266 0.02828699999999995 Q 11.518871486572266 0.03030749999999993 11.587568486572266 0.03232799999999991 Q 11.656265486572266 0.03434849999999989 11.722941986572266 0.03434849999999989 Q 11.817905486572267 0.03434849999999989 11.904786986572265 0.03232799999999991 Q 11.991668486572266 0.03030749999999993 12.028037486572266 0.03030749999999993 Q 12.272517986572266 0.03030749999999993 12.393747986572265 0.14143499999999998 Q 12.514977986572266 0.2525625 12.514977986572266 0.4283459999999999 Q 12.514977986572266 0.501084 12.490731986572266 0.58089375 Q 12.466485986572266 0.6607035 12.406881236572266 0.7283902499999999 Q 12.347276486572266 0.7960769999999999 12.244230986572266 0.8385075 Q 12.141185486572265 0.880938 11.983586486572266 0.880938 L 11.789618486572266 0.880938 L 11.789618486572266 0.8405279999999999 L 11.963381486572265 0.8405279999999999 Q 12.106836986572265 0.8405279999999999 12.182605736572265 0.7859744999999999 Q 12.258374486572265 0.731421 12.285651236572265 0.642519 Q 12.312927986572266 0.5536169999999999 12.312927986572266 0.4505714999999999 Q 12.312927986572266 0.25862399999999997 12.237159236572266 0.1636605 Q 12.161390486572266 0.06869700000000001 11.977524986572266 0.06869700000000001 Q 11.884581986572266 0.06869700000000001 11.856294986572266 0.1030454999999999 Q 11.828007986572265 0.13739400000000002 11.828007986572265 0.2424599999999999 L 11.828007986572265 1.244628 Q 11.828007986572265 1.317366 11.843161736572267 1.353735 Q 11.858315486572266 1.390104 11.902766486572265 1.4022270000000001 Q 11.947217486572265 1.41435 12.032078486572265 1.418391 L 12.032078486572265 1.458801 Q 11.979545486572265 1.45476 11.898725486572266 1.45374975 Q 11.817905486572267 1.4527395 11.735064986572265 1.4527395 Q 11.656265486572266 1.4527395 11.587568486572266 1.45374975 Q 11.518871486572266 1.45476 11.476440986572266 1.458801 L 11.476440986572266 1.418391 Q 11.545137986572266 1.41435 11.580496736572266 1.4022270000000001 Q 11.615855486572265 1.390104 11.627978486572266 1.353735 Q 11.640101486572267 1.317366 11.640101486572267 1.244628 L 11.640101486572267 0.2424599999999999 Q 11.640101486572267 0.16770149999999995 11.627978486572266 0.13234274999999984 Q 11.615855486572265 0.09698399999999996 11.580496736572266 0.08385074999999986 Q 11.545137986572266 0.07071749999999999 11.476440986572266 0.06869700000000001 L 11.476440986572266 0.02828699999999995 M 13.323222382324218 0 Q 13.51516988232422 0 13.659635632324218 0.08688149999999983 Q 13.80410138232422 0.1737629999999999 13.883911132324219 0.3364132499999999 Q 13.963720882324218 0.4990635 13.963720882324218 0.731421 Q 13.963720882324218 0.9577169999999999 13.881890632324218 1.1274389999999999 Q 13.800060382324219 1.297161 13.654584382324218 1.3921245 Q 13.509108382324218 1.487088 13.32120188232422 1.487088 Q 13.129254382324218 1.487088 12.984788632324218 1.4002065 Q 12.840322882324218 1.313325 12.760513132324219 1.1496645 Q 12.680703382324218 0.986004 12.680703382324218 0.755667 Q 12.680703382324218 0.5293709999999999 12.76354388232422 0.3596489999999999 Q 12.846384382324219 0.18992699999999996 12.99085013232422 0.09496349999999998 Q 13.13531588232422 0 13.323222382324218 0 M 13.315140382324218 0.036368999999999874 Q 13.183807882324219 0.036368999999999874 13.086823882324218 0.1272914999999999 Q 12.989839882324219 0.2182139999999999 12.936296632324218 0.37783349999999993 Q 12.882753382324218 0.537453 12.882753382324218 0.7475849999999999 Q 12.882753382324218 0.961758 12.942358132324218 1.12036725 Q 13.001962882324218 1.2789765 13.103998132324218 1.36484775 Q 13.206033382324218 1.450719 13.32928388232422 1.450719 Q 13.460616382324218 1.450719 13.55760038232422 1.3597965 Q 13.654584382324218 1.268874 13.708127632324219 1.10824425 Q 13.761670882324218 0.9476145 13.761670882324218 0.7395029999999999 Q 13.761670882324218 0.5233095 13.70206613232422 0.3657104999999998 Q 13.642461382324218 0.2081115 13.541436382324218 0.12224024999999994 Q 13.440411382324218 0.036368999999999874 13.315140382324218 0.036368999999999874 M 14.139569496093749 0.02828699999999995 Q 14.181999996093749 0.03030749999999993 14.25069699609375 0.03232799999999991 Q 14.31939399609375 0.03434849999999989 14.38607049609375 0.03434849999999989 Q 14.48103399609375 0.03434849999999989 14.567915496093748 0.03232799999999991 Q 14.654796996093749 0.03030749999999993 14.69116599609375 0.03030749999999993 Q 14.854826496093748 0.03030749999999993 14.96292324609375 0.07677899999999993 Q 15.07101999609375 0.12325049999999993 15.12456324609375 0.20306024999999983 Q 15.178106496093749 0.28286999999999995 15.178106496093749 0.3818744999999999 Q 15.178106496093749 0.4424895 15.153860496093749 0.5111865 Q 15.12961449609375 0.5798835 15.07000974609375 0.6404985 Q 15.01040499609375 0.7011135 14.907359496093749 0.74051325 Q 14.804313996093748 0.779913 14.646714996093749 0.779913 L 14.45274699609375 0.779913 L 14.45274699609375 0.7395029999999999 L 14.626509996093748 0.7395029999999999 Q 14.769965496093748 0.7395029999999999 14.845734246093748 0.6940417499999999 Q 14.921502996093748 0.6485805 14.948779746093749 0.57281175 Q 14.976056496093749 0.4970429999999999 14.976056496093749 0.4040999999999999 Q 14.976056496093749 0.24448049999999988 14.900287746093749 0.15658874999999983 Q 14.82451899609375 0.06869700000000001 14.64065349609375 0.06869700000000001 Q 14.54771049609375 0.06869700000000001 14.519423496093749 0.1030454999999999 Q 14.491136496093748 0.13739400000000002 14.491136496093748 0.2424599999999999 L 14.491136496093748 1.244628 Q 14.491136496093748 1.317366 14.503259496093749 1.353735 Q 14.51538249609375 1.390104 14.550741246093748 1.4022270000000001 Q 14.586099996093749 1.41435 14.654796996093749 1.418391 L 14.654796996093749 1.458801 Q 14.608325496093748 1.45476 14.53861824609375 1.45374975 Q 14.468910996093749 1.4527395 14.398193496093748 1.4527395 Q 14.31939399609375 1.4527395 14.25069699609375 1.45374975 Q 14.181999996093749 1.45476 14.139569496093749 1.458801 L 14.139569496093749 1.418391 Q 14.20826649609375 1.41435 14.24362524609375 1.4022270000000001 Q 14.278983996093748 1.390104 14.291106996093749 1.353735 Q 14.30322999609375 1.317366 14.30322999609375 1.244628 L 14.30322999609375 0.2424599999999999 Q 14.30322999609375 0.16770149999999995 14.291106996093749 0.13234274999999984 Q 14.278983996093748 0.09698399999999996 14.24362524609375 0.08385074999999986 Q 14.20826649609375 0.07071749999999999 14.139569496093749 0.06869700000000001 L 14.139569496093749 0.02828699999999995 M 14.460828996093749 0.7455645 Q 14.569935996093749 0.7496054999999999 14.63257149609375 0.75465675 Q 14.695206996093749 0.7597079999999999 14.73460674609375 0.763749 Q 14.77400649609375 0.76779 14.81037549609375 0.7738514999999999 Q 14.94574899609375 0.7960769999999999 15.00535374609375 0.85568175 Q 15.064958496093748 0.9152865 15.093245496093749 1.0405575 L 15.143757996093749 1.2466485 Q 15.16396299609375 1.3355505 15.185178246093749 1.37495025 Q 15.20639349609375 1.41435 15.250844496093748 1.4123295 Q 15.285192996093748 1.410309 15.30842874609375 1.390104 Q 15.33166449609375 1.369899 15.35793099609375 1.3355505 L 15.388238496093749 1.357776 Q 15.345807996093749 1.4204115 15.30034674609375 1.45374975 Q 15.254885496093749 1.487088 15.17204499609375 1.487088 Q 15.09728649609375 1.487088 15.040712496093748 1.442637 Q 14.984138496093749 1.398186 14.955851496093748 1.268874 L 14.91140049609375 1.066824 Q 14.89321599609375 0.9799424999999999 14.86998024609375 0.91629675 Q 14.846744496093748 0.8526509999999999 14.805324246093749 0.816282 Q 14.763903996093749 0.779913 14.68308399609375 0.779913 L 14.464869996093748 0.779913 L 14.460828996093749 0.7455645 M 16.54596723779297 0.02828699999999995 Q 16.537885237792967 0.10506599999999988 16.534854487792966 0.17679374999999986 Q 16.53182373779297 0.24852149999999984 16.53182373779297 0.2869109999999999 Q 16.53182373779297 0.3354029999999999 16.53384423779297 0.37783349999999993 Q 16.535864737792966 0.42026399999999997 16.537885237792967 0.4525919999999999 L 16.491413737792968 0.4525919999999999 Q 16.47727023779297 0.3111569999999999 16.453024237792967 0.22932675000000002 Q 16.42877823779297 0.14749649999999992 16.368163237792967 0.11112749999999982 Q 16.307548237792968 0.07475849999999995 16.180256737792966 0.07475849999999995 L 16.071149737792968 0.07475849999999995 L 16.071149737792968 1.224423 Q 16.071149737792968 1.305243 16.086303487792968 1.345653 Q 16.101457237792967 1.386063 16.145908237792966 1.4002065 Q 16.19035923779297 1.41435 16.27522023779297 1.418391 L 16.27522023779297 1.458801 Q 16.222687237792968 1.45476 16.14186723779297 1.45374975 Q 16.061047237792966 1.4527395 15.978206737792968 1.4527395 Q 15.887284237792967 1.4527395 15.807474487792968 1.45374975 Q 15.727664737792967 1.45476 15.679172737792967 1.458801 L 15.679172737792967 1.418391 Q 15.764033737792968 1.41435 15.808484737792968 1.4002065 Q 15.852935737792968 1.386063 15.868089487792968 1.345653 Q 15.883243237792968 1.305243 15.883243237792968 1.224423 L 15.883243237792968 0.07475849999999995 L 15.774136237792968 0.07475849999999995 Q 15.648865237792968 0.07475849999999995 15.587239987792968 0.11112749999999982 Q 15.525614737792967 0.14749649999999992 15.501368737792967 0.22932675000000002 Q 15.477122737792968 0.3111569999999999 15.462979237792968 0.4525919999999999 L 15.416507737792967 0.4525919999999999 Q 15.420548737792968 0.42026399999999997 15.421558987792968 0.37783349999999993 Q 15.422569237792967 0.3354029999999999 15.422569237792967 0.2869109999999999 Q 15.422569237792967 0.24852149999999984 15.419538487792968 0.17679374999999986 Q 15.416507737792967 0.10506599999999988 15.408425737792967 0.02828699999999995 Q 15.493286737792968 0.03030749999999993 15.593301487792967 0.03232799999999991 Q 15.693316237792967 0.03434849999999989 15.794341237792967 0.03434849999999989 Q 15.895366237792967 0.03434849999999989 15.978206737792968 0.03434849999999989 Q 16.061047237792966 0.03434849999999989 16.16106198779297 0.03434849999999989 Q 16.26107673779297 0.03434849999999989 16.36210173779297 0.03232799999999991 Q 16.46312673779297 0.03030749999999993 16.54596723779297 0.02828699999999995 M 16.689365516601562 0.02828699999999995 Q 16.73179601660156 0.03030749999999993 16.80049301660156 0.03232799999999991 Q 16.86919001660156 0.03434849999999989 16.93586651660156 0.03434849999999989 Q 17.030830016601563 0.03434849999999989 17.117711516601563 0.03232799999999991 Q 17.204593016601564 0.03030749999999993 17.24096201660156 0.03030749999999993 Q 17.404622516601563 0.03030749999999993 17.51271926660156 0.07677899999999993 Q 17.620816016601562 0.12325049999999993 17.674359266601563 0.20306024999999983 Q 17.727902516601564 0.28286999999999995 17.727902516601564 0.3818744999999999 Q 17.727902516601564 0.4424895 17.703656516601562 0.5111865 Q 17.67941051660156 0.5798835 17.619805766601562 0.6404985 Q 17.56020101660156 0.7011135 17.457155516601564 0.74051325 Q 17.354110016601563 0.779913 17.196511016601562 0.779913 L 17.00254301660156 0.779913 L 17.00254301660156 0.7395029999999999 L 17.17630601660156 0.7395029999999999 Q 17.319761516601563 0.7395029999999999 17.39553026660156 0.6940417499999999 Q 17.471299016601563 0.6485805 17.49857576660156 0.57281175 Q 17.52585251660156 0.4970429999999999 17.52585251660156 0.4040999999999999 Q 17.52585251660156 0.24448049999999988 17.450083766601562 0.15658874999999983 Q 17.37431501660156 0.06869700000000001 17.19044951660156 0.06869700000000001 Q 17.097506516601563 0.06869700000000001 17.069219516601564 0.1030454999999999 Q 17.04093251660156 0.13739400000000002 17.04093251660156 0.2424599999999999 L 17.04093251660156 1.244628 Q 17.04093251660156 1.317366 17.05305551660156 1.353735 Q 17.065178516601563 1.390104 17.100537266601563 1.4022270000000001 Q 17.135896016601563 1.41435 17.204593016601564 1.418391 L 17.204593016601564 1.458801 Q 17.15812151660156 1.45476 17.08841426660156 1.45374975 Q 17.01870701660156 1.4527395 16.947989516601563 1.4527395 Q 16.86919001660156 1.4527395 16.80049301660156 1.45374975 Q 16.73179601660156 1.45476 16.689365516601562 1.458801 L 16.689365516601562 1.418391 Q 16.758062516601562 1.41435 16.793421266601563 1.4022270000000001 Q 16.828780016601563 1.390104 16.840903016601562 1.353735 Q 16.85302601660156 1.317366 16.85302601660156 1.244628 L 16.85302601660156 0.2424599999999999 Q 16.85302601660156 0.16770149999999995 16.840903016601562 0.13234274999999984 Q 16.828780016601563 0.09698399999999996 16.793421266601563 0.08385074999999986 Q 16.758062516601562 0.07071749999999999 16.689365516601562 0.06869700000000001 L 16.689365516601562 0.02828699999999995 M 17.010625016601562 0.7455645 Q 17.119732016601564 0.7496054999999999 17.182367516601563 0.75465675 Q 17.24500301660156 0.7597079999999999 17.284402766601563 0.763749 Q 17.32380251660156 0.76779 17.36017151660156 0.7738514999999999 Q 17.49554501660156 0.7960769999999999 17.555149766601563 0.85568175 Q 17.61475451660156 0.9152865 17.643041516601564 1.0405575 L 17.693554016601563 1.2466485 Q 17.71375901660156 1.3355505 17.73497426660156 1.37495025 Q 17.756189516601562 1.41435 17.80064051660156 1.4123295 Q 17.83498901660156 1.410309 17.858224766601563 1.390104 Q 17.881460516601564 1.369899 17.907727016601562 1.3355505 L 17.93803451660156 1.357776 Q 17.895604016601563 1.4204115 17.85014276660156 1.45374975 Q 17.804681516601562 1.487088 17.721841016601562 1.487088 Q 17.64708251660156 1.487088 17.590508516601563 1.442637 Q 17.533934516601562 1.398186 17.505647516601563 1.268874 L 17.46119651660156 1.066824 Q 17.44301201660156 0.9799424999999999 17.419776266601563 0.91629675 Q 17.39654051660156 0.8526509999999999 17.355120266601563 0.816282 Q 17.31370001660156 0.779913 17.232880016601563 0.779913 L 17.014666016601563 0.779913 L 17.010625016601562 0.7455645 M 18.56643073461914 0.018184499999999826 L 19.05943273461914 1.289079 Q 19.08974023461914 1.365858 19.12812973461914 1.39111425 Q 19.16651923461914 1.4163705 19.19884723461914 1.418391 L 19.19884723461914 1.458801 Q 19.15843723461914 1.45476 19.09984273461914 1.45374975 Q 19.04124823461914 1.4527395 18.98265373461914 1.4527395 Q 18.90385423461914 1.4527395 18.83515723461914 1.45374975 Q 18.766460234619142 1.45476 18.72402973461914 1.458801 L 18.72402973461914 1.418391 Q 18.82707523461914 1.41435 18.85536223461914 1.38303225 Q 18.883649234619142 1.3517145 18.84323923461914 1.248669 L 18.46742623461914 0.24448049999999988 L 18.49975423461914 0.2182139999999999 L 18.14818723461914 1.13148 Q 18.11585923461914 1.2123 18.10979773461914 1.26786375 Q 18.10373623461914 1.3234275 18.12091048461914 1.3557555 Q 18.13808473461914 1.3880835 18.17950498461914 1.4022270000000001 Q 18.22092523461914 1.4163705 18.28356073461914 1.418391 L 18.28356073461914 1.458801 Q 18.22698673461914 1.45476 18.16536148461914 1.45374975 Q 18.10373623461914 1.4527395 18.05120323461914 1.4527395 Q 18.00069073461914 1.4527395 17.96533198461914 1.45374975 Q 17.92997323461914 1.45476 17.89966573461914 1.458801 L 17.89966573461914 1.418391 Q 17.94007573461914 1.4082885 17.98250623461914 1.37090925 Q 18.02493673461914 1.33353 18.05928523461914 1.2426075 L 18.53410273461914 0.018184499999999826 Q 18.54218473461914 0.018184499999999826 18.55026673461914 0.018184499999999826 Q 18.55834873461914 0.018184499999999826 18.56643073461914 0.018184499999999826 M 18.81293173461914 0.8768969999999999 L 18.81293173461914 0.917307 L 18.21082273461914 0.917307 L 18.23102773461914 0.8768969999999999 L 18.81293173461914 0.8768969999999999 M 19.746373137451172 0.02828699999999995 L 19.746373137451172 0.06869700000000001 Q 19.677676137451172 0.07071749999999999 19.642317387451172 0.08385074999999986 Q 19.60695863745117 0.09698399999999996 19.59483563745117 0.13234274999999984 Q 19.58271263745117 0.16770149999999995 19.58271263745117 0.2424599999999999 L 19.58271263745117 1.244628 Q 19.58271263745117 1.317366 19.59483563745117 1.353735 Q 19.60695863745117 1.390104 19.642317387451172 1.4022270000000001 Q 19.677676137451172 1.41435 19.746373137451172 1.418391 L 19.746373137451172 1.458801 Q 19.69990163745117 1.45476 19.63019438745117 1.45374975 Q 19.56048713745117 1.4527395 19.48976963745117 1.4527395 Q 19.41097013745117 1.4527395 19.34227313745117 1.45374975 Q 19.27357613745117 1.45476 19.23114563745117 1.458801 L 19.23114563745117 1.418391 Q 19.29984263745117 1.41435 19.33520138745117 1.4022270000000001 Q 19.37056013745117 1.390104 19.38268313745117 1.353735 Q 19.39480613745117 1.317366 19.39480613745117 1.244628 L 19.39480613745117 0.2424599999999999 Q 19.39480613745117 0.16770149999999995 19.38268313745117 0.13234274999999984 Q 19.37056013745117 0.09698399999999996 19.33520138745117 0.08385074999999986 Q 19.29984263745117 0.07071749999999999 19.23114563745117 0.06869700000000001 L 19.23114563745117 0.02828699999999995 Q 19.27357613745117 0.03030749999999993 19.34227313745117 0.03232799999999991 Q 19.41097013745117 0.03434849999999989 19.48976963745117 0.03434849999999989 Q 19.56048713745117 0.03434849999999989 19.63019438745117 0.03232799999999991 Q 19.69990163745117 0.03030749999999993 19.746373137451172 0.02828699999999995 M 21.027348432861327 0.02828699999999995 Q 21.01926643286133 0.10506599999999988 21.01623568286133 0.17679374999999986 Q 21.013204932861328 0.24852149999999984 21.013204932861328 0.2869109999999999 Q 21.013204932861328 0.3354029999999999 21.015225432861328 0.37783349999999993 Q 21.01724593286133 0.42026399999999997 21.01926643286133 0.4525919999999999 L 20.972794932861326 0.4525919999999999 Q 20.958651432861327 0.3111569999999999 20.93440543286133 0.22932675000000002 Q 20.910159432861327 0.14749649999999992 20.84954443286133 0.11112749999999982 Q 20.788929432861327 0.07475849999999995 20.66163793286133 0.07475849999999995 L 20.552530932861327 0.07475849999999995 L 20.552530932861327 1.224423 Q 20.552530932861327 1.305243 20.567684682861326 1.345653 Q 20.58283843286133 1.386063 20.62728943286133 1.4002065 Q 20.671740432861327 1.41435 20.756601432861327 1.418391 L 20.756601432861327 1.458801 Q 20.704068432861327 1.45476 20.623248432861327 1.45374975 Q 20.54242843286133 1.4527395 20.45958793286133 1.4527395 Q 20.368665432861327 1.4527395 20.28885568286133 1.45374975 Q 20.20904593286133 1.45476 20.16055393286133 1.458801 L 20.16055393286133 1.418391 Q 20.24541493286133 1.41435 20.28986593286133 1.4002065 Q 20.334316932861327 1.386063 20.349470682861327 1.345653 Q 20.364624432861326 1.305243 20.364624432861326 1.224423 L 20.364624432861326 0.07475849999999995 L 20.25551743286133 0.07475849999999995 Q 20.130246432861327 0.07475849999999995 20.068621182861328 0.11112749999999982 Q 20.00699593286133 0.14749649999999992 19.982749932861328 0.22932675000000002 Q 19.958503932861326 0.3111569999999999 19.944360432861327 0.4525919999999999 L 19.897888932861328 0.4525919999999999 Q 19.90192993286133 0.42026399999999997 19.90294018286133 0.37783349999999993 Q 19.90395043286133 0.3354029999999999 19.90395043286133 0.2869109999999999 Q 19.90395043286133 0.24852149999999984 19.90091968286133 0.17679374999999986 Q 19.897888932861328 0.10506599999999988 19.88980693286133 0.02828699999999995 Q 19.97466793286133 0.03030749999999993 20.07468268286133 0.03232799999999991 Q 20.17469743286133 0.03434849999999989 20.27572243286133 0.03434849999999989 Q 20.37674743286133 0.03434849999999989 20.45958793286133 0.03434849999999989 Q 20.54242843286133 0.03434849999999989 20.642443182861328 0.03434849999999989 Q 20.742457932861328 0.03434849999999989 20.843482932861328 0.03232799999999991 Q 20.944507932861328 0.03030749999999993 21.027348432861327 0.02828699999999995 M 21.60313371166992 0.006061499999999942 Q 21.70415871166992 0.006061499999999942 21.75669171166992 0.02929724999999994 Q 21.80922471166992 0.05253299999999994 21.84963471166992 0.08081999999999989 Q 21.87388071166992 0.09496349999999998 21.889034461669922 0.10203524999999991 Q 21.904188211669922 0.10910699999999984 21.91833171166992 0.10910699999999984 Q 21.938536711669922 0.10910699999999984 21.94762896166992 0.08688149999999983 Q 21.956721211669922 0.06465599999999982 21.96278271166992 0.020204999999999806 L 22.00925421166992 0.020204999999999806 Q 22.00723371166992 0.05455349999999992 22.00420296166992 0.10203524999999991 Q 22.00117221166992 0.1495169999999999 22.00016196166992 0.22730624999999982 Q 21.99915171166992 0.30509549999999996 21.99915171166992 0.43238699999999985 L 21.95268021166992 0.43238699999999985 Q 21.94661871166992 0.3354029999999999 21.91024971166992 0.24650099999999986 Q 21.87388071166992 0.15759899999999982 21.80417346166992 0.10102499999999992 Q 21.734466211669922 0.044450999999999796 21.62131821166992 0.044450999999999796 Q 21.51423171166992 0.044450999999999796 21.44452446166992 0.10910699999999984 Q 21.37481721166992 0.1737629999999999 21.37481721166992 0.278829 Q 21.37481721166992 0.3697515 21.42128871166992 0.43137674999999986 Q 21.46776021166992 0.49300199999999994 21.54554946166992 0.5425042499999999 Q 21.62333871166992 0.5920065 21.71426121166992 0.6485805 Q 21.819327211669922 0.7132364999999999 21.90115746166992 0.77688225 Q 21.98298771166992 0.8405279999999999 22.03046946166992 0.917307 Q 22.07795121166992 0.994086 22.07795121166992 1.103193 Q 22.07795121166992 1.232505 22.01935671166992 1.317366 Q 21.96076221166992 1.4022270000000001 21.86377821166992 1.4446575 Q 21.76679421166992 1.487088 21.649605211669922 1.487088 Q 21.54251871166992 1.487088 21.47988321166992 1.462842 Q 21.41724771166992 1.438596 21.37279671166992 1.4123295 Q 21.32834571166992 1.3840425 21.30409971166992 1.3840425 Q 21.28389471166992 1.3840425 21.27480246166992 1.406268 Q 21.26571021166992 1.4284935 21.25964871166992 1.4729445 L 21.21317721166992 1.4729445 Q 21.21721821166992 1.430514 21.21822846166992 1.37292975 Q 21.21923871166992 1.3153455 21.22024896166992 1.2224025 Q 21.22125921166992 1.1294595 21.22125921166992 0.9880245 L 21.26773071166992 0.9880245 Q 21.27581271166992 1.1092545 21.313191961669922 1.2143205 Q 21.35057121166992 1.3193865 21.42836046166992 1.38303225 Q 21.50614971166992 1.446678 21.63546171166992 1.446678 Q 21.702138211669922 1.446678 21.76174296166992 1.41940125 Q 21.821347711669922 1.3921245 21.85973721166992 1.33251975 Q 21.89812671166992 1.272915 21.89812671166992 1.1779515 Q 21.89812671166992 1.095111 21.85872696166992 1.03348575 Q 21.819327211669922 0.9718605 21.74860971166992 0.91831725 Q 21.67789221166992 0.8647739999999999 21.582928711669922 0.8081999999999999 Q 21.48796521166992 0.7496054999999999 21.40512471166992 0.6889905 Q 21.32228421166992 0.6283755 21.27278196166992 0.54856575 Q 21.22327971166992 0.46875599999999995 21.22327971166992 0.3556079999999999 Q 21.22327971166992 0.23639849999999996 21.27682296166992 0.1586092499999998 Q 21.330366211669922 0.08081999999999989 21.41724771166992 0.043440749999999806 Q 21.50412921166992 0.006061499999999942 21.60313371166992 0.006061499999999942" fill="#000000" fill-rule="nonzero"></path></g><g><path d=" M 0.6146010000000001 2.0251858499999997 L 0.7319520000000002 2.0251858499999997 L 1.3187070000000003 3.43737585 L 1.1715210000000003 3.43737585 L 0.9885330000000001 2.99581785 L 0.3540420000000001 2.99581785 L 0.17304300000000003 3.43737585 L 0.023868000000000004 3.43737585 L 0.6146010000000001 2.0251858499999997 M 0.9567090000000001 2.8864228499999998 L 0.6722820000000002 2.18828385 L 0.3838770000000001 2.8864228499999998 L 0.9567090000000001 2.8864228499999998 M 2.367955001953125 3.43737585 L 2.232703001953125 3.43737585 L 2.232703001953125 2.85857685 Q 2.232703001953125 2.67558885 2.179000001953125 2.5910563499999997 Q 2.1252970019531254 2.5065238499999998 2.0099350019531252 2.5065238499999998 Q 1.9303750019531252 2.5065238499999998 1.8528040019531251 2.54530935 Q 1.775233001953125 2.5840948499999996 1.7165575019531252 2.65072635 Q 1.657882001953125 2.71735785 1.632025001953125 2.80288485 L 1.632025001953125 3.43737585 L 1.4967730019531251 3.43737585 L 1.4967730019531251 2.4011068499999997 L 1.6200910019531252 2.4011068499999997 L 1.6200910019531252 2.63580885 Q 1.661860001953125 2.56022685 1.729486001953125 2.5035403499999997 Q 1.797112001953125 2.44685385 1.8826390019531252 2.41502985 Q 1.9681660019531253 2.3832058499999995 2.0596600019531253 2.3832058499999995 Q 2.145187001953125 2.3832058499999995 2.2048570019531253 2.41502985 Q 2.264527001953125 2.44685385 2.3003290019531253 2.5055293499999998 Q 2.336131001953125 2.56420485 2.3520430019531253 2.6467483499999997 Q 2.367955001953125 2.72929185 2.367955001953125 2.83073085 L 2.367955001953125 3.43737585 M 2.589744041015625 2.92222485 Q 2.589744041015625 2.77503885 2.6504085410156253 2.65271535 Q 2.7110730410156254 2.53039185 2.8184790410156255 2.4567988499999998 Q 2.925885041015625 2.3832058499999995 3.063126041015625 2.3832058499999995 Q 3.1924110410156255 2.3832058499999995 3.2948445410156255 2.4518263499999997 Q 3.3972780410156256 2.52044685 3.4549590410156252 2.61790785 L 3.4549590410156252 1.9854058499999998 L 3.5902110410156256 1.9854058499999998 L 3.5902110410156256 3.27427785 Q 3.5902110410156256 3.30212385 3.6021450410156257 3.31505235 Q 3.6140790410156254 3.32798085 3.637947041015625 3.32996985 L 3.637947041015625 3.43737585 Q 3.5981670410156257 3.44334285 3.5762880410156255 3.44135385 Q 3.5345190410156255 3.43936485 3.5026950410156257 3.40754085 Q 3.4708710410156254 3.37571685 3.4708710410156254 3.33792585 L 3.4708710410156254 3.23648685 Q 3.4092120410156257 3.33792585 3.3037950410156256 3.39759585 Q 3.1983780410156255 3.45726585 3.0850050410156253 3.45726585 Q 2.9775990410156252 3.45726585 2.8870995410156253 3.41350785 Q 2.7966000410156253 3.36974985 2.729968541015625 3.29416785 Q 2.6633370410156254 3.21858585 2.6265405410156255 3.12211935 Q 2.589744041015625 3.02565285 2.589744041015625 2.92222485 M 3.4549590410156252 3.08134485 L 3.4549590410156252 2.76111585 Q 3.4291020410156254 2.6895118499999997 3.3714210410156253 2.63083635 Q 3.3137400410156257 2.57216085 3.2411415410156255 2.53735335 Q 3.1685430410156252 2.5025458499999997 3.0969390410156254 2.5025458499999997 Q 3.0134010410156256 2.5025458499999997 2.9457750410156254 2.53735335 Q 2.878149041015625 2.57216085 2.829418541015625 2.63183085 Q 2.780688041015625 2.6915008499999997 2.7548310410156254 2.76708285 Q 2.7289740410156256 2.84266485 2.7289740410156256 2.92222485 Q 2.7289740410156256 3.00576285 2.7578145410156254 3.08134485 Q 2.7866550410156252 3.15692685 2.8403580410156253 3.21560235 Q 2.8940610410156253 3.27427785 2.9636760410156255 3.30610185 Q 3.0332910410156253 3.33792585 3.1148400410156256 3.33792585 Q 3.166554041015625 3.33792585 3.2222460410156253 3.31803585 Q 3.2779380410156254 3.29814585 3.3286575410156254 3.26333835 Q 3.3793770410156254 3.22853085 3.4131900410156257 3.18079485 Q 3.4470030410156256 3.13305885 3.4549590410156252 3.08134485 M 4.416658993652344 2.52044685 Q 4.281406993652344 2.52442485 4.178973493652344 2.5960288499999997 Q 4.076539993652344 2.66763285 4.034770993652344 2.79293985 L 4.034770993652344 3.43737585 L 3.899518993652344 3.43737585 L 3.899518993652344 2.4011068499999997 L 4.026814993652344 2.4011068499999997 L 4.026814993652344 2.6497318499999998 Q 4.080517993652344 2.54033685 4.169028493652344 2.47271085 Q 4.257538993652344 2.4050848499999997 4.356988993652344 2.3971288499999996 Q 4.376878993652344 2.3951398499999996 4.391796493652344 2.3951398499999996 Q 4.406713993652344 2.3951398499999996 4.416658993652344 2.3971288499999996 L 4.416658993652344 2.52044685 M 5.016386197265626 3.45726585 Q 4.905002197265626 3.45726585 4.809530197265626 3.41450235 Q 4.714058197265626 3.37173885 4.644443197265626 3.29715135 Q 4.574828197265625 3.22256385 4.536042697265626 3.12510285 Q 4.4972571972656255 3.02764185 4.4972571972656255 2.91625785 Q 4.4972571972656255 2.77106085 4.563888697265625 2.6497318499999998 Q 4.630520197265626 2.52840285 4.747871197265626 2.4558043499999997 Q 4.865222197265625 2.3832058499999995 5.014397197265626 2.3832058499999995 Q 5.1675501972656255 2.3832058499999995 5.281917697265626 2.4567988499999998 Q 5.396285197265626 2.53039185 5.461922197265626 2.65072635 Q 5.527559197265626 2.77106085 5.527559197265626 2.91426885 Q 5.527559197265626 2.93018085 5.527559197265626 2.94509835 Q 5.527559197265626 2.96001585 5.525570197265626 2.96797185 L 4.638476197265626 2.96797185 Q 4.648421197265626 3.07935585 4.701129697265626 3.16587735 Q 4.753838197265626 3.25239885 4.838370697265626 3.30311835 Q 4.922903197265626 3.35383785 5.022353197265626 3.35383785 Q 5.123792197265626 3.35383785 5.214291697265626 3.30212385 Q 5.304791197265626 3.25040985 5.340593197265626 3.16687185 L 5.4579441972656255 3.19869585 Q 5.426120197265625 3.27228885 5.3604831972656255 3.33195885 Q 5.294846197265626 3.39162885 5.206335697265626 3.42444735 Q 5.117825197265626 3.45726585 5.016386197265626 3.45726585 M 4.634498197265626 2.87051085 L 5.400263197265626 2.87051085 Q 5.392307197265626 2.75713785 5.339598697265625 2.67161085 Q 5.286890197265626 2.5860838499999996 5.202357697265626 2.53735335 Q 5.117825197265626 2.4886228499999996 5.016386197265626 2.4886228499999996 Q 4.914947197265626 2.4886228499999996 4.831409197265626 2.53735335 Q 4.747871197265626 2.5860838499999996 4.6951626972656255 2.67260535 Q 4.642454197265626 2.75912685 4.634498197265626 2.87051085 M 5.655800166503907 3.13902585 Q 5.655800166503907 3.04156485 5.711492166503907 2.97095535 Q 5.767184166503907 2.90034585 5.865639666503907 2.86156035 Q 5.964095166503907 2.82277485 6.093380166503907 2.82277485 Q 6.168962166503907 2.82277485 6.250511166503907 2.83470885 Q 6.332060166503907 2.84664285 6.3957081665039075 2.87051085 L 6.3957081665039075 2.7829948499999997 Q 6.3957081665039075 2.65172085 6.318137166503908 2.57414985 Q 6.240566166503907 2.4965788499999997 6.103325166503907 2.4965788499999997 Q 6.0197871665039075 2.4965788499999997 5.939232666503907 2.52740835 Q 5.858678166503907 2.55823785 5.771162166503907 2.61790785 L 5.719448166503907 2.52243585 Q 5.8208871665039075 2.4528208499999997 5.9183481665039075 2.41801335 Q 6.0158091665039075 2.3832058499999995 6.117248166503908 2.3832058499999995 Q 6.308192166503908 2.3832058499999995 6.419576166503907 2.4926008499999996 Q 6.530960166503907 2.6019958499999998 6.530960166503907 2.79492885 L 6.530960166503907 3.27427785 Q 6.530960166503907 3.30212385 6.542894166503907 3.31505235 Q 6.554828166503907 3.32798085 6.5806851665039074 3.32996985 L 6.5806851665039074 3.43737585 Q 6.558806166503907 3.43936485 6.542894166503907 3.44135385 Q 6.526982166503907 3.44334285 6.519026166503907 3.44135385 Q 6.469301166503907 3.43936485 6.443444166503907 3.40952985 Q 6.417587166503907 3.37969485 6.415598166503907 3.34588185 L 6.413609166503907 3.27029985 Q 6.343994166503907 3.35980485 6.232610166503907 3.40853535 Q 6.121226166503908 3.45726585 6.005864166503907 3.45726585 Q 5.906414166503907 3.45726585 5.8258596665039075 3.41450235 Q 5.745305166503907 3.37173885 5.700552666503907 3.29914035 Q 5.655800166503907 3.22654185 5.655800166503907 3.13902585 M 6.349961166503907 3.21858585 Q 6.371840166503907 3.19073985 6.383774166503907 3.16488285 Q 6.3957081665039075 3.13902585 6.3957081665039075 3.11913585 L 6.3957081665039075 2.96797185 Q 6.328082166503907 2.94211485 6.255483666503907 2.92819185 Q 6.182885166503907 2.91426885 6.1092921665039075 2.91426885 Q 5.964095166503907 2.91426885 5.874590166503907 2.97194985 Q 5.785085166503907 3.0296308499999998 5.785085166503907 3.12908085 Q 5.785085166503907 3.18676185 5.814920166503907 3.23748135 Q 5.844755166503907 3.28820085 5.902436166503907 3.32101935 Q 5.960117166503907 3.35383785 6.037688166503907 3.35383785 Q 6.135149166503907 3.35383785 6.219681666503908 3.31604685 Q 6.3042141665039075 3.27825585 6.349961166503907 3.21858585 M 7.166411674804689 3.45726585 Q 7.039115674804688 3.45726585 6.929720674804688 3.41549685 Q 6.820325674804689 3.37372785 6.740765674804688 3.28820085 L 6.796457674804689 3.19272885 Q 6.883973674804689 3.27427785 6.972484174804689 3.31107435 Q 7.060994674804689 3.34787085 7.160444674804689 3.34787085 Q 7.281773674804689 3.34787085 7.357355674804689 3.29914035 Q 7.4329376748046885 3.25040985 7.4329376748046885 3.15891585 Q 7.4329376748046885 3.09725685 7.396141174804689 3.06443835 Q 7.359344674804689 3.03161985 7.290724174804689 3.01073535 Q 7.222103674804688 2.98985085 7.126631674804688 2.96598285 Q 7.019225674804689 2.93614785 6.946627174804688 2.90332935 Q 6.874028674804689 2.87051085 6.837232174804688 2.81979135 Q 6.800435674804689 2.76907185 6.800435674804689 2.6875228499999997 Q 6.800435674804689 2.5860838499999996 6.851155174804688 2.51945235 Q 6.901874674804689 2.4528208499999997 6.990385174804689 2.41801335 Q 7.078895674804689 2.3832058499999995 7.188290674804689 2.3832058499999995 Q 7.307630674804688 2.3832058499999995 7.399124674804689 2.42099685 Q 7.490618674804689 2.4587878499999998 7.548299674804689 2.52641385 L 7.482662674804689 2.61790785 Q 7.426970674804688 2.5542598499999998 7.350394174804689 2.52343035 Q 7.273817674804689 2.4926008499999996 7.180334674804689 2.4926008499999996 Q 7.116686674804688 2.4926008499999996 7.0590056748046885 2.50950735 Q 7.001324674804689 2.52641385 6.9645281748046886 2.56519935 Q 6.927731674804688 2.60398485 6.927731674804688 2.67161085 Q 6.927731674804688 2.72730285 6.9555776748046885 2.75813235 Q 6.983423674804689 2.7889618499999997 7.039115674804688 2.80984635 Q 7.094807674804689 2.83073085 7.176356674804689 2.85459885 Q 7.293707674804689 2.8864228499999998 7.381223674804689 2.91924135 Q 7.468739674804689 2.95205985 7.516475674804688 3.00377385 Q 7.564211674804689 3.05548785 7.564211674804689 3.14897085 Q 7.564211674804689 3.29416785 7.454816674804689 3.37571685 Q 7.3454216748046885 3.45726585 7.166411674804689 3.45726585 M 9.579021086425783 3.43737585 L 9.579021086425783 2.2877338499999995 L 9.067848086425782 3.18079485 L 8.980332086425783 3.18079485 L 8.467170086425782 2.2877338499999995 L 8.467170086425782 3.43737585 L 8.327940086425782 3.43737585 L 8.327940086425782 2.0251858499999997 L 8.471148086425782 2.0251858499999997 L 9.022101086425781 2.99183985 L 9.577032086425783 2.0251858499999997 L 9.718251086425783 2.0251858499999997 L 9.718251086425783 3.43737585 L 9.579021086425783 3.43737585 M 10.037513750976563 3.00974085 L 10.037513750976563 2.4011068499999997 L 10.172765750976565 2.4011068499999997 L 10.172765750976565 2.98587285 Q 10.172765750976565 3.16289385 10.233430250976564 3.25040985 Q 10.294094750976564 3.33792585 10.413434750976563 3.33792585 Q 10.492994750976564 3.33792585 10.567582250976564 3.30311835 Q 10.642169750976564 3.2683108499999998 10.699850750976564 3.20366835 Q 10.757531750976565 3.13902585 10.787366750976563 3.05349885 L 10.787366750976563 2.4011068499999997 L 10.922618750976564 2.4011068499999997 L 10.922618750976564 3.27427785 Q 10.922618750976564 3.30212385 10.934552750976565 3.31505235 Q 10.946486750976565 3.32798085 10.970354750976565 3.32996985 L 10.970354750976565 3.43737585 Q 10.946486750976565 3.43936485 10.932563750976565 3.44035935 Q 10.918640750976564 3.44135385 10.906706750976564 3.44135385 Q 10.866926750976564 3.43737585 10.838086250976565 3.40952985 Q 10.809245750976563 3.38168385 10.807256750976563 3.34190385 L 10.803278750976563 3.20267385 Q 10.735652750976564 3.32201385 10.619296250976564 3.38963985 Q 10.502939750976564 3.45726585 10.367687750976565 3.45726585 Q 10.204589750976563 3.45726585 10.121051750976564 3.34389285 Q 10.037513750976563 3.23051985 10.037513750976563 3.00974085 M 10.270226750976564 2.17634985 L 10.270226750976564 1.9893838499999998 L 10.385588750976563 1.9893838499999998 L 10.385588750976563 2.17634985 L 10.270226750976564 2.17634985 M 10.566587750976565 2.17634985 L 10.566587750976565 1.9893838499999998 L 10.681949750976564 1.9893838499999998 L 10.681949750976564 2.17634985 L 10.566587750976565 2.17634985 M 11.237863596679688 1.9854058499999998 L 11.373115596679689 1.9854058499999998 L 11.373115596679689 3.20267385 Q 11.373115596679689 3.28024485 11.400961596679688 3.30411285 Q 11.428807596679688 3.32798085 11.468587596679688 3.32798085 Q 11.504389596679689 3.32798085 11.540191596679689 3.32002485 Q 11.575993596679687 3.31206885 11.601850596679688 3.30411285 L 11.625718596679688 3.41350785 Q 11.587927596679688 3.42941985 11.533230096679688 3.43936485 Q 11.478532596679688 3.44930985 11.438752596679688 3.44930985 Q 11.347258596679689 3.44930985 11.292561096679687 3.39560685 Q 11.237863596679688 3.34190385 11.237863596679688 3.24842085 L 11.237863596679688 1.9854058499999998 M 11.781800709960939 1.9854058499999998 L 11.917052709960938 1.9854058499999998 L 11.917052709960938 3.20267385 Q 11.917052709960938 3.28024485 11.944898709960938 3.30411285 Q 11.972744709960939 3.32798085 12.012524709960939 3.32798085 Q 12.04832670996094 3.32798085 12.08412870996094 3.32002485 Q 12.119930709960938 3.31206885 12.145787709960938 3.30411285 L 12.169655709960939 3.41350785 Q 12.131864709960938 3.42941985 12.077167209960939 3.43936485 Q 12.022469709960939 3.44930985 11.982689709960939 3.44930985 Q 11.89119570996094 3.44930985 11.836498209960938 3.39560685 Q 11.781800709960939 3.34190385 11.781800709960939 3.24842085 L 11.781800709960939 1.9854058499999998 M 12.76729582324219 3.45726585 Q 12.655911823242189 3.45726585 12.56043982324219 3.41450235 Q 12.464967823242189 3.37173885 12.39535282324219 3.29715135 Q 12.32573782324219 3.22256385 12.28695232324219 3.12510285 Q 12.24816682324219 3.02764185 12.24816682324219 2.91625785 Q 12.24816682324219 2.77106085 12.31479832324219 2.6497318499999998 Q 12.38142982324219 2.52840285 12.498780823242189 2.4558043499999997 Q 12.61613182324219 2.3832058499999995 12.76530682324219 2.3832058499999995 Q 12.91845982324219 2.3832058499999995 13.03282732324219 2.4567988499999998 Q 13.14719482324219 2.53039185 13.21283182324219 2.65072635 Q 13.27846882324219 2.77106085 13.27846882324219 2.91426885 Q 13.27846882324219 2.93018085 13.27846882324219 2.94509835 Q 13.27846882324219 2.96001585 13.27647982324219 2.96797185 L 12.38938582324219 2.96797185 Q 12.39933082324219 3.07935585 12.45203932324219 3.16587735 Q 12.50474782324219 3.25239885 12.589280323242189 3.30311835 Q 12.673812823242189 3.35383785 12.77326282324219 3.35383785 Q 12.874701823242189 3.35383785 12.965201323242189 3.30212385 Q 13.055700823242189 3.25040985 13.09150282324219 3.16687185 L 13.20885382324219 3.19869585 Q 13.17702982324219 3.27228885 13.11139282324219 3.33195885 Q 13.045755823242189 3.39162885 12.957245323242189 3.42444735 Q 12.868734823242189 3.45726585 12.76729582324219 3.45726585 M 12.38540782324219 2.87051085 L 13.15117282324219 2.87051085 Q 13.14321682324219 2.75713785 13.09050832324219 2.67161085 Q 13.037799823242189 2.5860838499999996 12.953267323242189 2.53735335 Q 12.868734823242189 2.4886228499999996 12.76729582324219 2.4886228499999996 Q 12.665856823242189 2.4886228499999996 12.58231882324219 2.53735335 Q 12.498780823242189 2.5860838499999996 12.44607232324219 2.67260535 Q 12.39336382324219 2.75912685 12.38540782324219 2.87051085 M 14.007387792480472 2.52044685 Q 13.87213579248047 2.52442485 13.76970229248047 2.5960288499999997 Q 13.66726879248047 2.66763285 13.625499792480472 2.79293985 L 13.625499792480472 3.43737585 L 13.49024779248047 3.43737585 L 13.49024779248047 2.4011068499999997 L 13.617543792480472 2.4011068499999997 L 13.617543792480472 2.6497318499999998 Q 13.67124679248047 2.54033685 13.75975729248047 2.47271085 Q 13.84826779248047 2.4050848499999997 13.947717792480471 2.3971288499999996 Q 13.967607792480472 2.3951398499999996 13.98252529248047 2.3951398499999996 Q 13.997442792480472 2.3951398499999996 14.007387792480472 2.3971288499999996 L 14.007387792480472 2.52044685" fill="#3361e1" fill-rule="nonzero"></path></g></g><defs><clipPath id="SvgjsClipPath19919"><path d=" M -8.767734885347949 -1.3696540122855196 h 8.367734885347948 v 6.176683874571039 h -8.367734885347948 Z"></path></clipPath><clipPath id="SvgjsClipPath19917c252fd95-8fad-456d-860c-e2f325ce54ef"><path d=" M -8.767734885347949 -1.3696540122855196 L -0.40000000000000036 -1.3696540122855196 L -0.40000000000000036 4.807029862285519 L -8.767734885347949 4.807029862285519 Z"></path></clipPath><linearGradient id="gradient-c1195d0f-4e77-4d96-a830-fb58607edbad_0" x1="0" x2="1" y1="0" y2="1"><stop stop-color="#284cb0" offset="0"></stop><stop stop-color="#050915" offset="1"></stop></linearGradient><linearGradient id="gradient-c1195d0f-4e77-4d96-a830-fb58607edbad_1" x1="0" x2="1" y1="0" y2="1"><stop stop-color="#2e57c9" offset="0"></stop><stop stop-color="#142557" offset="1"></stop></linearGradient><linearGradient id="gradient-c1195d0f-4e77-4d96-a830-fb58607edbad_2" x1="0" x2="1" y1="0" y2="1"><stop stop-color="#193172" offset="0"></stop><stop stop-color="#000000" offset="1"></stop></linearGradient><linearGradient id="gradient-c1195d0f-4e77-4d96-a830-fb58607edbad_3" x1="0" x2="1" y1="0" y2="1"><stop stop-color="#284cb1" offset="0"></stop><stop stop-color="#2547a5" offset="1"></stop></linearGradient><linearGradient id="gradient-c1195d0f-4e77-4d96-a830-fb58607edbad_4" x1="0" x2="1" y1="0" y2="1"><stop stop-color="#2b52be" offset="0"></stop><stop stop-color="#193070" offset="1"></stop></linearGradient><linearGradient id="gradient-c1195d0f-4e77-4d96-a830-fb58607edbad_5" x1="0" x2="1" y1="0" y2="1"><stop stop-color="#2d56c8" offset="0"></stop><stop stop-color="#284bae" offset="1"></stop></linearGradient><linearGradient id="gradient-c1195d0f-4e77-4d96-a830-fb58607edbad_6" x1="0" x2="1" y1="0" y2="1"><stop stop-color="#193171" offset="0"></stop><stop stop-color="#11214d" offset="1"></stop></linearGradient></defs></svg>